<?xml version="1.0" standalone="no"?>
<!DOCTYPE svg PUBLIC "-//W3C//DTD SVG 20010904//EN"
 "http://www.w3.org/TR/2001/REC-SVG-20010904/DTD/svg10.dtd">
<svg version="1.0" xmlns="http://www.w3.org/2000/svg"
 width="1280.000000pt" height="720.000000pt" viewBox="0 0 1280.000000 720.000000"
 preserveAspectRatio="xMidYMid meet">

<g transform="translate(0.000000,720.000000) scale(0.100000,-0.100000)"
fill="#000000" stroke="none">
<path d="M5967 7093 c-4 -3 -7 -114 -7 -245 l0 -238 1000 0 1000 0 -2 243 -3
242 -991 3 c-545 1 -994 -1 -997 -5z m1983 -238 l0 -235 -990 0 -990 0 0 235
0 235 990 0 990 0 0 -235z"/>
<path d="M650 6595 c0 -43 4 -75 10 -75 6 0 10 13 10 28 0 23 6 30 33 37 60
18 45 85 -19 85 l-34 0 0 -75z m70 30 c0 -20 -5 -25 -25 -25 -20 0 -25 5 -25
25 0 20 5 25 25 25 20 0 25 -5 25 -25z"/>
<path d="M1590 6660 c0 -5 5 -10 10 -10 6 0 10 5 10 10 0 6 -4 10 -10 10 -5 0
-10 -4 -10 -10z"/>
<path d="M1310 6645 c0 -8 -5 -15 -12 -15 -9 0 -9 -3 0 -12 7 -7 12 -24 12
-39 0 -15 3 -34 6 -43 7 -17 44 -22 44 -6 0 6 -7 10 -15 10 -10 0 -15 11 -15
35 0 24 5 35 15 35 8 0 15 5 15 10 0 6 -7 10 -15 10 -8 0 -15 7 -15 15 0 8 -4
15 -10 15 -5 0 -10 -7 -10 -15z"/>
<path d="M1510 6645 c0 -8 -5 -15 -12 -15 -9 0 -9 -3 0 -12 7 -7 12 -24 12
-39 0 -15 3 -34 6 -43 7 -17 44 -22 44 -6 0 6 -7 10 -15 10 -10 0 -15 11 -15
35 0 24 5 35 15 35 8 0 15 5 15 10 0 6 -7 10 -15 10 -8 0 -15 7 -15 15 0 8 -4
15 -10 15 -5 0 -10 -7 -10 -15z"/>
<path d="M770 6573 c0 -29 5 -53 10 -53 6 0 10 18 10 41 0 32 4 42 20 46 30 8
24 22 -10 21 -29 -1 -30 -2 -30 -55z"/>
<path d="M857 6612 c-34 -37 -11 -92 38 -92 37 0 39 18 3 22 -49 5 -48 28 1
28 45 0 54 16 25 44 -21 21 -47 20 -67 -2z m58 -12 c4 -6 -7 -10 -25 -10 -18
0 -29 4 -25 10 3 6 15 10 25 10 10 0 22 -4 25 -10z"/>
<path d="M972 6618 c-18 -18 -15 -27 20 -48 26 -16 29 -20 15 -26 -9 -3 -24
-3 -33 0 -10 4 -14 1 -12 -6 3 -7 18 -13 34 -13 40 0 47 39 10 57 -33 14 -33
28 -1 28 14 0 25 5 25 10 0 14 -43 13 -58 -2z"/>
<path d="M1067 6612 c-34 -37 -11 -92 38 -92 37 0 39 18 3 22 -49 5 -48 28 1
28 45 0 54 16 25 44 -21 21 -47 20 -67 -2z m58 -12 c4 -6 -7 -10 -25 -10 -18
0 -29 4 -25 10 3 6 15 10 25 10 10 0 22 -4 25 -10z"/>
<path d="M1180 6573 c0 -63 17 -72 22 -10 2 35 7 43 26 45 20 3 22 -1 22 -42
0 -25 5 -46 10 -46 15 0 12 86 -3 98 -7 6 -27 10 -45 10 -32 -1 -32 -1 -32
-55z"/>
<path d="M1397 6623 c-14 -14 -6 -19 23 -15 40 6 39 -14 -1 -23 -59 -13 -45
-65 17 -63 33 1 34 2 34 43 0 22 -5 46 -12 53 -13 13 -50 16 -61 5z m51 -65
c-5 -15 -48 -24 -48 -10 0 14 12 22 33 22 10 0 17 -5 15 -12z"/>
<path d="M1590 6575 c0 -30 5 -55 10 -55 6 0 10 25 10 55 0 30 -4 55 -10 55
-5 0 -10 -25 -10 -55z"/>
<path d="M1657 6612 c-21 -24 -22 -56 -1 -77 24 -23 66 -15 83 16 13 24 13 29
-2 53 -21 31 -56 34 -80 8z m68 -21 c10 -31 -5 -52 -34 -49 -26 3 -38 26 -27
54 8 21 53 18 61 -5z"/>
<path d="M1780 6573 c0 -63 17 -72 22 -10 2 35 7 43 26 45 20 3 22 -1 22 -42
0 -25 5 -46 10 -46 15 0 12 86 -3 98 -7 6 -27 10 -45 10 -32 -1 -32 -1 -32
-55z"/>
<path d="M3290 6425 c0 -91 18 -101 22 -12 l3 62 24 -63 c13 -34 29 -61 35
-59 5 2 20 26 31 55 29 73 35 73 35 4 0 -35 4 -62 10 -62 6 0 10 32 10 75 0
66 -2 75 -18 75 -14 0 -26 -17 -43 -60 l-24 -61 -27 61 c-39 86 -58 82 -58
-15z"/>
<path d="M3620 6490 c0 -5 5 -10 10 -10 6 0 10 5 10 10 0 6 -4 10 -10 10 -5 0
-10 -4 -10 -10z"/>
<path d="M3507 6453 c-14 -14 -6 -19 23 -15 40 6 39 -14 -1 -23 -59 -13 -45
-65 17 -63 33 1 34 2 34 43 0 22 -5 46 -12 53 -13 13 -50 16 -61 5z m51 -65
c-5 -15 -48 -24 -48 -10 0 14 12 22 33 22 10 0 17 -5 15 -12z"/>
<path d="M3620 6405 c0 -30 5 -55 10 -55 6 0 10 25 10 55 0 30 -4 55 -10 55
-5 0 -10 -25 -10 -55z"/>
<path d="M3680 6403 c0 -63 17 -72 22 -10 2 35 7 43 26 45 20 3 22 -1 22 -42
0 -25 5 -46 10 -46 15 0 12 86 -3 98 -7 6 -27 10 -45 10 -32 -1 -32 -1 -32
-55z"/>
<path d="M3850 6384 c0 -43 4 -74 10 -74 6 0 10 11 10 24 0 19 4 22 24 19 32
-6 60 33 50 71 -6 26 -23 34 -71 34 -22 1 -23 -3 -23 -74z m72 39 c7 -33 -4
-54 -26 -51 -37 5 -34 68 3 68 11 0 21 -8 23 -17z"/>
<path d="M3987 6453 c-14 -14 -6 -19 23 -15 40 6 39 -14 -1 -23 -59 -13 -45
-65 17 -63 33 1 34 2 34 43 0 22 -5 46 -12 53 -13 13 -50 16 -61 5z m51 -65
c-5 -15 -48 -24 -48 -10 0 14 12 22 33 22 10 0 17 -5 15 -12z"/>
<path d="M4102 6443 c-5 -10 -8 -43 -8 -73 1 -54 2 -55 32 -58 39 -4 71 23 53
44 -6 8 -26 14 -43 15 l-31 1 33 9 c24 7 32 15 32 32 0 13 5 28 12 35 9 9 3
12 -30 12 -29 0 -44 -5 -50 -17z m56 -20 c5 -17 -26 -29 -40 -15 -6 6 -7 15
-3 22 9 14 37 9 43 -7z m7 -83 c-3 -5 -17 -10 -31 -10 -13 0 -24 5 -24 10 0 6
14 10 31 10 17 0 28 -4 24 -10z"/>
<path d="M4215 6440 c-20 -22 -14 -26 14 -8 11 6 26 8 37 3 15 -6 11 -10 -23
-17 -25 -5 -43 -15 -43 -23 0 -21 29 -45 55 -45 37 0 39 18 3 22 -49 5 -48 28
1 28 45 0 54 16 25 44 -21 22 -47 20 -69 -4z"/>
<path d="M650 6264 c0 -43 4 -74 10 -74 6 0 10 11 10 24 0 19 4 22 24 19 32
-6 60 33 50 71 -6 26 -23 34 -71 34 -22 1 -23 -3 -23 -74z m72 39 c7 -33 -4
-54 -26 -51 -37 5 -34 68 3 68 11 0 21 -8 23 -17z"/>
<path d="M787 6333 c-14 -14 -6 -19 23 -15 40 6 39 -14 -1 -23 -59 -13 -45
-65 17 -63 33 1 34 2 34 43 0 22 -5 46 -12 53 -13 13 -50 16 -61 5z m51 -65
c-5 -15 -48 -24 -48 -10 0 14 12 22 33 22 10 0 17 -5 15 -12z"/>
<path d="M902 6323 c-5 -10 -8 -43 -8 -73 1 -54 2 -55 32 -58 39 -4 71 23 53
44 -6 8 -26 14 -43 15 l-31 1 33 9 c24 7 32 15 32 32 0 13 5 28 12 35 9 9 3
12 -30 12 -29 0 -44 -5 -50 -17z m56 -20 c5 -17 -26 -29 -40 -15 -6 6 -7 15
-3 22 9 14 37 9 43 -7z m7 -83 c-3 -5 -17 -10 -31 -10 -13 0 -24 5 -24 10 0 6
14 10 31 10 17 0 28 -4 24 -10z"/>
<path d="M1017 6322 c-34 -37 -11 -92 38 -92 37 0 39 18 3 22 -49 5 -48 28 1
28 45 0 54 16 25 44 -21 21 -47 20 -67 -2z m58 -12 c4 -6 -7 -10 -25 -10 -18
0 -29 4 -25 10 3 6 15 10 25 10 10 0 22 -4 25 -10z"/>
<path d="M5897 5793 c-4 -3 -7 -159 -7 -345 l0 -338 1295 0 1295 0 -2 343 -3
342 -1286 3 c-707 1 -1289 -1 -1292 -5z m2573 -338 l0 -335 -1285 0 -1285 0 0
335 0 335 1285 0 1285 0 0 -335z"/>
<path d="M1628 5413 c17 -2 47 -2 65 0 17 2 3 4 -33 4 -36 0 -50 -2 -32 -4z"/>
<path d="M1978 5413 c17 -2 47 -2 65 0 17 2 3 4 -33 4 -36 0 -50 -2 -32 -4z"/>
<path d="M1528 5403 c12 -2 30 -2 40 0 9 3 -1 5 -23 4 -22 0 -30 -2 -17 -4z"/>
<path d="M2113 5403 c9 -2 25 -2 35 0 9 3 1 5 -18 5 -19 0 -27 -2 -17 -5z"/>
<path d="M1453 5393 c9 -2 23 -2 30 0 6 3 -1 5 -18 5 -16 0 -22 -2 -12 -5z"/>
<path d="M2193 5393 c9 -2 23 -2 30 0 6 3 -1 5 -18 5 -16 0 -22 -2 -12 -5z"/>
<path d="M1388 5383 c6 -2 18 -2 25 0 6 3 1 5 -13 5 -14 0 -19 -2 -12 -5z"/>
<path d="M2258 5383 c6 -2 18 -2 25 0 6 3 1 5 -13 5 -14 0 -19 -2 -12 -5z"/>
<path d="M1338 5373 c6 -2 18 -2 25 0 6 3 1 5 -13 5 -14 0 -19 -2 -12 -5z"/>
<path d="M2318 5373 c7 -3 16 -2 19 1 4 3 -2 6 -13 5 -11 0 -14 -3 -6 -6z"/>
<path d="M1288 5363 c7 -3 16 -2 19 1 4 3 -2 6 -13 5 -11 0 -14 -3 -6 -6z"/>
<path d="M2368 5363 c7 -3 16 -2 19 1 4 3 -2 6 -13 5 -11 0 -14 -3 -6 -6z"/>
<path d="M1248 5353 c7 -3 16 -2 19 1 4 3 -2 6 -13 5 -11 0 -14 -3 -6 -6z"/>
<path d="M2408 5353 c7 -3 16 -2 19 1 4 3 -2 6 -13 5 -11 0 -14 -3 -6 -6z"/>
<path d="M2478 5333 c7 -3 16 -2 19 1 4 3 -2 6 -13 5 -11 0 -14 -3 -6 -6z"/>
<path d="M1070 5300 c-8 -5 -10 -10 -5 -10 6 0 17 5 25 10 8 5 11 10 5 10 -5
0 -17 -5 -25 -10z"/>
<path d="M2630 5280 c8 -5 20 -10 25 -10 6 0 3 5 -5 10 -8 5 -19 10 -25 10 -5
0 -3 -5 5 -10z"/>
<path d="M741 5024 c0 -11 3 -14 6 -6 3 7 2 16 -1 19 -3 4 -6 -2 -5 -13z"/>
<path d="M2932 4980 c0 -14 2 -19 5 -12 2 6 2 18 0 25 -3 6 -5 1 -5 -13z"/>
<path d="M741 4934 c0 -11 3 -14 6 -6 3 7 2 16 -1 19 -3 4 -6 -2 -5 -13z"/>
<path d="M2844 4808 l-29 -33 33 29 c30 28 37 36 29 36 -2 0 -16 -15 -33 -32z"/>
<path d="M815 4810 c10 -11 20 -20 23 -20 3 0 -3 9 -13 20 -10 11 -20 20 -23
20 -3 0 3 -9 13 -20z"/>
<path d="M4597 4823 c-4 -3 -7 -123 -7 -265 l0 -258 1480 0 1480 0 -2 263 -3
262 -1471 3 c-809 1 -1474 -1 -1477 -5z m2943 -258 l0 -255 -1470 0 -1470 0 0
255 0 255 1470 0 1470 0 0 -255z"/>
<path d="M2680 4700 c-9 -6 -10 -10 -3 -10 6 0 15 5 18 10 8 12 4 12 -15 0z"/>
<path d="M2590 4660 c-8 -5 -10 -10 -5 -10 6 0 17 5 25 10 8 5 11 10 5 10 -5
0 -17 -5 -25 -10z"/>
<path d="M1168 4623 c7 -3 16 -2 19 1 4 3 -2 6 -13 5 -11 0 -14 -3 -6 -6z"/>
<path d="M2465 4620 c-13 -5 -14 -9 -5 -9 8 0 24 4 35 9 13 5 14 9 5 9 -8 0
-24 -4 -35 -9z"/>
<path d="M1238 4603 c7 -3 16 -2 19 1 4 3 -2 6 -13 5 -11 0 -14 -3 -6 -6z"/>
<path d="M2418 4603 c7 -3 16 -2 19 1 4 3 -2 6 -13 5 -11 0 -14 -3 -6 -6z"/>
<path d="M1278 4593 c7 -3 16 -2 19 1 4 3 -2 6 -13 5 -11 0 -14 -3 -6 -6z"/>
<path d="M2378 4593 c7 -3 16 -2 19 1 4 3 -2 6 -13 5 -11 0 -14 -3 -6 -6z"/>
<path d="M1328 4583 c7 -3 16 -2 19 1 4 3 -2 6 -13 5 -11 0 -14 -3 -6 -6z"/>
<path d="M2328 4583 c6 -2 18 -2 25 0 6 3 1 5 -13 5 -14 0 -19 -2 -12 -5z"/>
<path d="M1378 4573 c7 -3 16 -2 19 1 4 3 -2 6 -13 5 -11 0 -14 -3 -6 -6z"/>
<path d="M2278 4573 c7 -3 16 -2 19 1 4 3 -2 6 -13 5 -11 0 -14 -3 -6 -6z"/>
<path d="M1433 4563 c9 -2 23 -2 30 0 6 3 -1 5 -18 5 -16 0 -22 -2 -12 -5z"/>
<path d="M2213 4563 c9 -2 23 -2 30 0 6 3 -1 5 -18 5 -16 0 -22 -2 -12 -5z"/>
<path d="M1503 4553 c9 -2 25 -2 35 0 9 3 1 5 -18 5 -19 0 -27 -2 -17 -5z"/>
<path d="M2133 4553 c9 -2 25 -2 35 0 9 3 1 5 -18 5 -19 0 -27 -2 -17 -5z"/>
<path d="M1603 4543 c15 -2 39 -2 55 0 15 2 2 4 -28 4 -30 0 -43 -2 -27 -4z"/>
<path d="M2013 4543 c15 -2 39 -2 55 0 15 2 2 4 -28 4 -30 0 -43 -2 -27 -4z"/>
<path d="M1778 4533 c34 -2 88 -2 120 0 31 2 3 3 -63 3 -66 0 -92 -1 -57 -3z"/>
</g>
</svg>
